<svg id="Football_icon" xmlns="http://www.w3.org/2000/svg" width="33.856" height="33.855" viewBox="0 0 33.856 33.855">
  <g id="Group_165" data-name="Group 165" transform="translate(1.532 1.532)">
    <path id="Path_281" data-name="Path 281" d="M369.166,1653.24c9.98-9.98,23.148-6.374,23.148-6.374s3.606,13.168-6.374,23.148-23.148,6.375-23.148,6.375S359.186,1663.22,369.166,1653.24Z" transform="translate(-362.157 -1646.231)" fill="#d93833"/>
  </g>
  <path id="Path_282" data-name="Path 282" d="M392.559,1647.111h0l-29.522,29.523h0s13.168,3.605,23.148-6.375S392.559,1647.111,392.559,1647.111Zm-9.17,20.352a23.951,23.951,0,0,1-16.295,6.986l23.28-23.281A23.95,23.95,0,0,1,383.389,1667.463Z" transform="translate(-360.87 -1644.945)" fill="#83332e"/>
  <path id="Path_283" data-name="Path 283" d="M392.314,1646.866c-.008,0-13.171-3.6-23.148,6.374a23.342,23.342,0,0,0-5.5,8.609h0q-.267.738-.479,1.466v0q-.211.726-.372,1.436v0h0a26.332,26.332,0,0,0-.016,11.632,26.361,26.361,0,0,0,11.63-.019l0,0,.163-.04c.136-.032.271-.064.408-.1.12-.03.241-.063.362-.1.139-.037.276-.074.415-.114.12-.035.239-.072.359-.108.142-.043.283-.085.426-.132.115-.038.232-.079.347-.118a23.186,23.186,0,0,0,4.658-2.185l.2-.123a22.621,22.621,0,0,1-4.795,1.79l-6.466-6.466,14.113-14.112,6.836,6.836a24.285,24.285,0,0,0,.854-2.909l-5.808-5.808Zm-1.158,1.077c-1.011.941-2.741,2.539-4.89,4.523l-4.04-4.041A27.171,27.171,0,0,1,391.157,1647.943Zm-27.181,20.384c.094-.657.221-1.335.378-2.024l3.343,3.344c-1.278,1.189-2.476,2.309-3.55,3.317A24.783,24.783,0,0,1,363.976,1668.327Zm9.793,7.391c-5.258.579-9.277-.7-9.334-.975l4.18-4.18Zm-4.122-7.884-4.442-4.442a23.779,23.779,0,0,1,14.112-14.113l4.993,4.993C379.934,1658.311,374.418,1663.4,369.647,1667.833Z" transform="translate(-360.625 -1644.7)" fill="#fff"/>
  <path id="Path_284" data-name="Path 284" d="M393.2,1645.87l-.231-.843-.843-.23a25.352,25.352,0,0,0-6.148-.689h0a25.421,25.421,0,0,0-25.861,23.74,26.743,26.743,0,0,0,.605,8.353l.231.842.843.231a25.337,25.337,0,0,0,6.149.689,25.421,25.421,0,0,0,25.861-23.741A26.74,26.74,0,0,0,393.2,1645.87Zm-24.626,6.779a24.149,24.149,0,0,1,17.4-7.009,26.247,26.247,0,0,1,4.857.439l-8.868,8.868-1.08-1.08-1.083,1.083,1.08,1.079-.919.92-1.08-1.08-1.083,1.083,1.08,1.08-.919.92-1.08-1.08-1.083,1.083,1.079,1.079-.919.92-1.08-1.08-1.083,1.083,1.079,1.08-.919.92-1.08-1.08-1.083,1.083,1.08,1.08-.92.919-1.08-1.079-1.083,1.083,1.08,1.08L362,1674.909C361.409,1671.794,360.14,1661.083,368.574,1652.648Zm16.774,16.774a24.145,24.145,0,0,1-17.4,7.009,26.317,26.317,0,0,1-4.857-.439l8.868-8.868,1.08,1.08,1.083-1.083-1.08-1.08.919-.919,1.08,1.079,1.083-1.083-1.08-1.08.919-.919,1.08,1.08,1.083-1.083-1.08-1.08.919-.919,1.08,1.08,1.083-1.084-1.079-1.08.919-.919,1.08,1.08,1.083-1.083-1.079-1.08.919-.919,1.08,1.08,1.083-1.083-1.079-1.079,8.868-8.868C392.513,1650.278,393.782,1660.988,385.348,1669.422Z" transform="translate(-360.033 -1644.108)" fill="#fff"/>
</svg>
