<svg id="Football_Helmet" xmlns="http://www.w3.org/2000/svg" width="63.396" height="42.053" viewBox="0 0 63.396 42.053">
  <g id="Group_167" data-name="Group 167">
    <path id="Path_285" data-name="Path 285" d="M367.518,1852.959a14.383,14.383,0,1,0-25.923,12.1l13.787,4.5s5.782-.053,5.836-5.781a11.359,11.359,0,0,0-2.088-3.8s-1.231-3.052,2.892-4.925A27.059,27.059,0,0,1,367.518,1852.959Z" transform="translate(-339.558 -1843.265)" fill="#00e7ca"/>
    <path id="Path_286" data-name="Path 286" d="M342.5,1863.11a16.331,16.331,0,0,0,.291,3.072l13.412,4.376s5.782-.053,5.836-5.781a11.359,11.359,0,0,0-2.088-3.8s-1.231-3.052,2.892-4.925a27.049,27.049,0,0,1,5.5-2.091,14.372,14.372,0,0,0-4.216-6.187A16.255,16.255,0,0,0,342.5,1863.11Z" transform="translate(-340.377 -1844.267)" fill="#e4e4e5" style="mix-blend-mode: multiply;isolation: isolate"/>
    <path id="Path_287" data-name="Path 287" d="M361.881,1858.719a.749.749,0,1,0-.75.75A.749.749,0,0,0,361.881,1858.719Z" transform="translate(-345.36 -1847.362)" fill="#231f20"/>
    <path id="Path_288" data-name="Path 288" d="M352.753,1874.524a.749.749,0,1,0-.75.75A.749.749,0,0,0,352.753,1874.524Z" transform="translate(-342.817 -1851.767)" fill="#231f20"/>
    <path id="Path_289" data-name="Path 289" d="M360.248,1876.38a.749.749,0,1,0-.75.75A.749.749,0,0,0,360.248,1876.38Z" transform="translate(-344.905 -1852.284)" fill="#231f20"/>
    <path id="Path_290" data-name="Path 290" d="M341.865,1872.336l4.448,1.451a2.247,2.247,0,0,0-1.4-3.185l-4.384-1.216A14.121,14.121,0,0,0,341.865,1872.336Z" transform="translate(-339.827 -1850.543)" fill="#eeefef"/>
    <path id="Path_291" data-name="Path 291" d="M375.55,1851.986a2.246,2.246,0,0,0-.878,2.569l.5,1.5a13.038,13.038,0,0,1,2.1-.664A14.13,14.13,0,0,0,375.55,1851.986Z" transform="translate(-349.31 -1845.695)" fill="#eeefef"/>
    <path id="Path_292" data-name="Path 292" d="M376.263,1864.88a.429.429,0,0,0-.318-.172l-7.064-.442-.575-5.653,5.52-1.356a.43.43,0,0,0-.2-.835l-9.369,2.3-.03.011a.255.255,0,0,0-.026.007l-.011.005-.041.021-.033.02c-.012.008-.022.017-.032.026s-.022.017-.031.027a.325.325,0,0,0-.025.03.42.42,0,0,0-.027.034l0,.006-3.694,5.835a.43.43,0,0,0,.136.594l2.911,1.82a.433.433,0,0,0,.214.066l4.775.152.359,3.53a.43.43,0,0,0,.354.38l5.246.91a.44.44,0,0,0,.074.006.43.43,0,0,0,.418-.332l1.552-6.638A.427.427,0,0,0,376.263,1864.88Zm-.879.653-.281,1.2-5.991-.19-.144-1.41Zm-7.372-1.322-1.216-.076-1.86-4.7,2.528-.621Zm-4.31,2.158-2.447-1.529,3.012-4.757,1.83,4.622a.43.43,0,0,0,.373.271l1.63.1.146,1.437Zm10.338,4.912-4.525-.785-.315-3.092,5.7.182Z" transform="translate(-345.318 -1846.927)" fill="#b9bbbe"/>
  </g>
  <g id="Group_168" data-name="Group 168" transform="translate(32.366 15.761)">
    <path id="Path_293" data-name="Path 293" d="M388.682,1874.808a14.383,14.383,0,1,1,25.923,12.1l-13.787,4.5s-5.782-.053-5.836-5.781a11.354,11.354,0,0,1,2.088-3.8s1.231-3.052-2.892-4.926A27.069,27.069,0,0,0,388.682,1874.808Z" transform="translate(-385.612 -1865.115)" fill="#ffcd00"/>
    <path id="Path_294" data-name="Path 294" d="M414.521,1884.959a16.332,16.332,0,0,1-.291,3.073l-13.412,4.376s-5.782-.053-5.836-5.781a11.354,11.354,0,0,1,2.088-3.8s1.231-3.052-2.892-4.926a27.069,27.069,0,0,0-5.5-2.091,14.372,14.372,0,0,1,4.216-6.186,16.255,16.255,0,0,1,21.623,15.334Z" transform="translate(-385.612 -1866.117)" fill="#e4e4e5" style="mix-blend-mode: multiply;isolation: isolate"/>
    <path id="Path_295" data-name="Path 295" d="M404.54,1880.568a.749.749,0,1,1,.749.75A.749.749,0,0,1,404.54,1880.568Z" transform="translate(-390.031 -1869.212)" fill="#231f20"/>
    <path id="Path_296" data-name="Path 296" d="M413.668,1896.375a.749.749,0,1,1,.749.75A.749.749,0,0,1,413.668,1896.375Z" transform="translate(-392.574 -1873.616)" fill="#231f20"/>
    <path id="Path_297" data-name="Path 297" d="M406.173,1898.229a.749.749,0,1,1,.749.75A.75.75,0,0,1,406.173,1898.229Z" transform="translate(-390.486 -1874.133)" fill="#231f20"/>
    <path id="Path_298" data-name="Path 298" d="M422.805,1894.185l-4.448,1.451a2.3,2.3,0,0,1-.162-.417,2.248,2.248,0,0,1,1.565-2.768l4.384-1.217A14.107,14.107,0,0,1,422.805,1894.185Z" transform="translate(-393.813 -1872.393)" fill="#eeefef"/>
    <path id="Path_299" data-name="Path 299" d="M390.4,1873.835a2.247,2.247,0,0,1,.878,2.57l-.5,1.5a13.049,13.049,0,0,0-2.1-.665A14.15,14.15,0,0,1,390.4,1873.835Z" transform="translate(-385.612 -1867.545)" fill="#eeefef"/>
    <path id="Path_300" data-name="Path 300" d="M384.438,1887.083l1.552,6.638a.428.428,0,0,0,.491.325l5.246-.91a.429.429,0,0,0,.354-.379l.359-3.53,4.775-.152a.432.432,0,0,0,.214-.065l2.911-1.82a.431.431,0,0,0,.136-.594l-3.694-5.835,0-.006c-.008-.011-.018-.022-.027-.034a.319.319,0,0,0-.025-.03.351.351,0,0,0-.031-.027.369.369,0,0,0-.032-.027c-.011-.007-.022-.013-.033-.019a.352.352,0,0,0-.041-.022l-.011-.006-.026-.007c-.01,0-.019-.008-.03-.01l-9.369-2.3a.429.429,0,0,0-.2.834l5.52,1.356-.575,5.654-7.064.441a.429.429,0,0,0-.392.526Zm7.367-.1-.144,1.41-5.991.191-.281-1.2Zm1.505-6.313,2.528.621-1.86,4.7-1.216.076Zm-.783,7.7.146-1.437,1.63-.1a.428.428,0,0,0,.373-.271l1.83-4.622,3.012,4.757-2.447,1.53Zm-6.658,1.071,5.7-.181-.315,3.092-4.525.786Z" transform="translate(-384.426 -1868.777)" fill="#b9bbbe"/>
  </g>
</svg>
