<svg xmlns="http://www.w3.org/2000/svg" width="41.964" height="43.373" viewBox="0 0 41.964 43.373">
  <g id="Icon_Skelet" transform="translate(0.679 0.643)">
    <g id="Group_190" data-name="Group 190" transform="translate(3.441)">
      <g id="Group_186" data-name="Group 186">
        <path id="Path_313" data-name="Path 313" d="M389.477,2306.267a1.355,1.355,0,0,1-.958-2.313,15.023,15.023,0,1,0-21.246,0,1.355,1.355,0,0,1-1.917,1.917,17.742,17.742,0,1,1,25.079,0A1.353,1.353,0,0,1,389.477,2306.267Z" transform="translate(-360.163 -2275.597)" fill="#fff"/>
      </g>
      <g id="Group_187" data-name="Group 187" transform="translate(6.21 26.425)">
        <path id="Path_314" data-name="Path 314" d="M387.951,2325.343a3.062,3.062,0,0,1-2.049-.787l-1.78-1.544-.026-.023a.363.363,0,0,0-.49,0l-1.239,1.132a3.074,3.074,0,0,1-4.144,0l-1.24-1.132a.362.362,0,0,0-.49,0l-.025.023-1.78,1.544a3.05,3.05,0,0,1-3.208.555l-.014-.006a4.407,4.407,0,0,1-2.694-4.063v-7.459a1.355,1.355,0,0,1,2.71,0v7.459a1.7,1.7,0,0,0,1.039,1.567l0,0a.335.335,0,0,0,.352-.069l.025-.022,1.78-1.544a3.073,3.073,0,0,1,4.129.014l1.24,1.132a.363.363,0,0,0,.49,0l1.24-1.132a3.073,3.073,0,0,1,4.129-.014l1.78,1.544.025.022a.333.333,0,0,0,.349.07l.006,0a1.695,1.695,0,0,0,1.039-1.567v-7.459a1.355,1.355,0,0,1,2.71,0v7.459a4.411,4.411,0,0,1-2.693,4.063l-.016.006A3,3,0,0,1,387.951,2325.343Z" transform="translate(-368.772 -2312.229)" fill="#fff"/>
      </g>
      <g id="Group_188" data-name="Group 188" transform="translate(7.659 14.595)">
        <path id="Path_315" data-name="Path 315" d="M376.466,2302.4l-1.495.408a3.316,3.316,0,0,1-4.19-3.2v-.468a3.316,3.316,0,0,1,3.316-3.316h1.5a3.316,3.316,0,0,1,3.316,3.316v.059A3.317,3.317,0,0,1,376.466,2302.4Z" transform="translate(-370.781 -2295.83)" fill="#fff"/>
        <path id="Path_316" data-name="Path 316" d="M389.887,2302.4l1.5.408a3.316,3.316,0,0,0,4.19-3.2v-.468a3.316,3.316,0,0,0-3.316-3.316h-1.5a3.316,3.316,0,0,0-3.316,3.316v.059A3.317,3.317,0,0,0,389.887,2302.4Z" transform="translate(-375.424 -2295.83)" fill="#fff"/>
      </g>
      <g id="Group_189" data-name="Group 189" transform="translate(14.165 24.149)">
        <path id="Path_317" data-name="Path 317" d="M381.269,2314.322l-.663-.129a1,1,0,0,1-.733-1.353l1.281-3.145a1,1,0,0,1,1.113-.6l.017,0a1,1,0,0,1,.788,1.168l-.635,3.27A1,1,0,0,1,381.269,2314.322Z" transform="translate(-379.799 -2309.074)" fill="#fff"/>
        <path id="Path_318" data-name="Path 318" d="M387.007,2314.322l.664-.129a1,1,0,0,0,.732-1.353l-1.281-3.145a1,1,0,0,0-1.112-.6l-.018,0a1,1,0,0,0-.788,1.168l.636,3.27A1,1,0,0,0,387.007,2314.322Z" transform="translate(-381.3 -2309.074)" fill="#fff"/>
      </g>
    </g>
    <line id="Line_4" data-name="Line 4" x2="39.918" y2="36.886" transform="translate(0 0.092)" fill="none" stroke="#ff3900" stroke-miterlimit="10" stroke-width="2"/>
    <line id="Line_5" data-name="Line 5" x1="36.886" y2="39.918" transform="translate(3.664 2.133)" fill="none" stroke="#ff3900" stroke-miterlimit="10" stroke-width="2"/>
  </g>
</svg>
